<?xml version="1.0" standalone="no"?>
<!DOCTYPE svg PUBLIC "-//W3C//DTD SVG 20010904//EN"
 "http://www.w3.org/TR/2001/REC-SVG-20010904/DTD/svg10.dtd">
<svg version="1.0" xmlns="http://www.w3.org/2000/svg"
 width="198.000000pt" height="198.000000pt" viewBox="0 0 198.000000 198.000000"
 preserveAspectRatio="xMidYMid meet">
<metadata>
Created by potrace 1.10, written by Peter Selinger 2001-2011
</metadata>
<g transform="translate(0.000000,198.000000) scale(0.100000,-0.100000)"
fill="#000000" stroke="none">
<path d="M507 1424 c-15 -8 -33 -12 -39 -8 -7 5 -8 3 -3 -6 6 -10 4 -12 -8 -7
-19 7 -44 -18 -27 -28 7 -4 8 -11 2 -18 -13 -17 -23 -94 -23 -182 0 -43 -4
-75 -10 -75 -6 0 -8 -4 -4 -9 3 -6 -3 -14 -12 -20 -14 -8 -15 -11 -3 -11 8 -1
-2 -10 -23 -21 -41 -22 -54 -40 -41 -61 5 -7 9 -17 9 -23 0 -5 5 -10 12 -10
17 0 53 -32 53 -47 0 -6 -7 -3 -16 8 -14 18 -15 18 -4 -3 6 -13 14 -23 19 -23
10 0 11 -6 24 -207 2 -22 9 -49 17 -59 13 -16 13 -17 0 -9 -13 7 -13 6 -2 -7
10 -12 10 -17 -1 -27 -8 -6 -18 -7 -22 -3 -5 4 -5 1 -1 -6 6 -11 12 -10 28 4
15 14 23 16 36 7 9 -6 16 -15 15 -20 -2 -12 69 -14 84 -2 9 8 8 18 -4 44 -9
19 -20 32 -24 29 -10 -6 -19 29 -18 66 3 111 -21 250 -43 250 -5 0 -8 6 -5 13
2 6 0 20 -5 31 -8 14 -5 24 15 42 14 12 29 20 33 16 5 -4 3 0 -4 10 -9 11 -10
18 -2 23 13 8 24 -20 16 -40 -3 -8 -1 -15 4 -15 6 0 10 -5 10 -12 0 -6 8 -20
17 -31 17 -18 17 -20 -2 -35 -11 -10 -20 -28 -20 -42 0 -50 133 -84 195 -50
14 8 29 13 33 12 5 -1 6 2 3 7 -4 5 -1 13 6 17 7 4 10 3 5 -1 -4 -5 0 -17 10
-27 20 -22 76 -24 93 -3 12 14 15 14 30 0 23 -21 70 -18 100 6 14 11 19 17 11
13 -10 -5 -12 -3 -6 5 5 9 14 6 34 -13 35 -34 90 -35 117 -4 10 12 13 18 7 14
-11 -6 -15 0 -12 20 0 3 -6 15 -14 28 -13 19 -13 23 -2 23 8 0 12 -4 9 -8 -2
-4 1 -11 7 -14 5 -4 8 -13 5 -21 -3 -8 0 -11 10 -7 9 3 14 -1 14 -12 0 -9 4
-14 9 -10 5 3 13 0 17 -6 16 -27 72 -39 124 -28 27 6 50 15 50 20 0 6 4 8 9 5
5 -3 12 1 15 10 3 8 10 13 15 9 19 -11 2 35 -21 58 -25 24 -25 24 -82 12 -32
-6 -42 -5 -52 10 -14 18 -4 52 19 67 13 8 59 -9 69 -25 6 -9 8 -9 8 0 0 7 7
10 15 7 8 -4 15 -1 15 5 0 5 9 19 20 29 19 18 19 18 -6 56 -19 27 -31 36 -45
33 -10 -3 -17 -2 -15 2 8 12 -91 6 -107 -7 -7 -6 -17 -9 -21 -5 -7 7 -46 -31
-46 -46 0 -5 -6 -13 -12 -17 -7 -4 -10 -4 -6 1 9 9 -39 50 -70 59 -12 4 -20
10 -18 14 2 4 -31 6 -75 4 -65 -3 -81 -7 -93 -23 -13 -19 -14 -19 -21 -2 -5
10 -8 20 -7 24 3 16 -65 1 -84 -19 -17 -19 -22 -21 -32 -9 -7 8 -10 16 -8 18
2 2 -12 5 -32 7 -80 7 -120 7 -115 0 2 -5 -4 -8 -14 -8 -10 0 -27 -14 -37 -31
-30 -51 -40 -23 -38 107 2 98 5 119 19 130 10 7 18 16 19 21 0 4 4 16 8 25 11
24 3 52 -14 55 -8 1 -27 -4 -43 -13z m43 -19 c0 -8 -9 -23 -20 -33 -31 -28
-40 -75 -40 -196 l0 -109 -44 -44 -45 -44 39 -36 c44 -39 49 -55 54 -188 3
-49 5 -98 5 -107 1 -10 15 -33 32 -53 27 -30 28 -35 12 -35 -28 0 -92 48 -98
73 -3 12 -9 75 -14 139 -11 125 -30 173 -78 199 -31 17 -29 23 11 47 53 31 66
67 73 200 3 64 10 125 15 135 8 16 75 65 91 66 4 1 7 -6 7 -14z m184 -296 c22
-10 23 -14 14 -41 -8 -21 -14 -26 -21 -19 -6 6 -31 11 -55 11 -61 0 -55 -28
11 -45 85 -21 110 -68 64 -120 -15 -18 -36 -28 -64 -32 -50 -7 -136 14 -128
31 3 6 8 19 11 29 5 12 12 16 23 11 9 -4 37 -9 64 -12 37 -3 47 -1 47 11 0 10
-22 22 -62 34 -50 15 -65 24 -72 44 -13 38 0 76 32 93 32 18 101 20 136 5z
m136 -119 l0 -125 -35 -1 -35 -1 0 127 0 127 35 -1 35 -1 0 -125z m251 91 c26
-32 25 -94 -2 -120 -21 -20 -21 -20 -2 -48 35 -49 34 -50 -4 -48 -27 2 -43 11
-62 34 -35 42 -61 41 -61 -1 0 -31 -2 -33 -35 -34 l-35 -1 0 126 0 126 91 -5
c80 -4 93 -8 110 -29z m257 19 c38 -23 39 -29 8 -52 -21 -15 -26 -16 -36 -3
-15 18 -59 19 -82 1 -10 -7 -21 -26 -24 -42 -12 -61 62 -109 106 -69 15 14 19
13 38 -4 29 -24 28 -28 -10 -51 -88 -54 -208 10 -208 110 0 100 120 164 208
110z m-615 -67 c-4 -10 -2 -14 5 -9 7 4 10 -1 9 -13 -1 -19 -2 -19 -19 -4 -14
12 -15 19 -7 30 15 18 20 16 12 -4z m-299 -59 c5 -14 4 -15 -9 -4 -17 14 -19
20 -6 20 5 0 12 -7 15 -16z"/>
<path d="M990 1020 c0 -39 1 -40 28 -34 48 10 52 13 52 38 0 25 -16 36 -56 36
-21 0 -24 -4 -24 -40z m50 0 c0 -5 -8 -10 -17 -10 -15 0 -16 2 -3 10 19 12 20
12 20 0z"/>
<path d="M1416 1427 c-14 -11 -16 -18 -9 -33 6 -10 8 -26 6 -34 -4 -13 -3 -13
5 -1 8 11 14 6 27 -25 16 -38 24 -192 13 -257 -4 -22 -3 -25 8 -16 11 9 14 8
14 -4 0 -9 15 -30 33 -46 l32 -31 -31 -29 c-18 -17 -35 -27 -38 -24 -8 8 -9
-8 -16 -270 0 -9 -9 -25 -20 -34 -11 -10 -20 -24 -20 -32 0 -11 -4 -10 -15 5
-13 17 -13 15 -1 -16 13 -33 18 -35 60 -36 25 -1 43 3 40 8 -3 5 3 17 14 26
29 26 46 64 44 97 -2 17 0 25 5 18 4 -6 8 23 7 65 -1 87 5 124 17 116 5 -3 6
2 3 10 -3 9 12 33 40 61 44 46 45 48 28 70 -9 13 -19 22 -22 20 -3 -2 -14 3
-25 11 -10 8 -16 14 -12 14 4 0 -2 9 -13 20 -15 15 -21 34 -21 63 2 191 -13
241 -85 275 -53 26 -46 25 -68 9z m52 -23 c60 -29 68 -51 75 -184 7 -131 21
-174 66 -196 44 -22 46 -31 12 -60 -49 -41 -62 -77 -72 -193 -5 -58 -12 -118
-15 -134 -6 -30 -66 -77 -98 -77 -18 0 -17 3 8 29 34 36 42 71 45 190 2 106
15 146 61 176 16 11 30 22 30 25 0 3 -13 14 -29 24 -51 35 -61 63 -61 178 0
116 -12 173 -41 191 -10 6 -19 20 -19 29 0 22 -1 22 38 2z"/>
<path d="M410 1355 c-7 -9 -11 -17 -9 -20 3 -2 10 5 17 15 14 24 10 26 -8 5z"/>
<path d="M1400 1146 c0 -2 7 -7 16 -10 8 -3 12 -2 9 4 -6 10 -25 14 -25 6z"/>
<path d="M1565 569 c-4 -6 -5 -12 -2 -15 2 -3 7 2 10 11 7 17 1 20 -8 4z"/>
<path d="M1586 553 c-6 -14 -5 -15 5 -6 7 7 10 15 7 18 -3 3 -9 -2 -12 -12z"/>
</g>
</svg>
